<svg width="72" height="72" viewBox="0 0 72 72" fill="none" xmlns="http://www.w3.org/2000/svg">
<path d="M36 0L67.1769 18V54L36 72L4.82309 54V18L36 0Z" fill="#065E7C"/>
<path fill-rule="evenodd" clip-rule="evenodd" d="M30.1395 24.0001C30.756 24.0001 31.2558 24.4134 31.2558 24.9232V29.5386C31.2558 30.0484 30.756 30.4616 30.1395 30.4616C29.523 30.4616 29.0233 30.0484 29.0233 29.5386V24.9232C29.0233 24.4134 29.523 24.0001 30.1395 24.0001Z" fill="white"/>
<path fill-rule="evenodd" clip-rule="evenodd" d="M30.1395 33.6924C30.756 33.6924 31.2558 34.1057 31.2558 34.6155V47.0769C31.2558 47.5867 30.756 48 30.1395 48C29.523 48 29.0233 47.5867 29.0233 47.0769V34.6155C29.0233 34.1057 29.523 33.6924 30.1395 33.6924Z" fill="white"/>
<path fill-rule="evenodd" clip-rule="evenodd" d="M26.4161 24.0127C27.0242 24.0965 27.435 24.5721 27.3336 25.075L26.2335 30.5333C26.2558 31.3642 26.6646 32.1572 27.3769 32.7461C28.1096 33.352 29.1033 33.6924 30.1395 33.6924C31.1757 33.6924 32.1695 33.352 32.9022 32.7461C33.6144 32.1572 34.0233 31.3642 34.0456 30.5333L32.9454 25.075C32.8441 24.5721 33.2549 24.0965 33.863 24.0127C34.4711 23.9289 35.0462 24.2686 35.1476 24.7715L36.2639 30.3099C36.274 30.36 36.2791 30.4108 36.2791 30.4616C36.2791 31.8081 35.6322 33.0994 34.4808 34.0515C33.3295 35.0037 31.7678 35.5385 30.1395 35.5385C28.5112 35.5385 26.9496 35.0037 25.7982 34.0515C24.6468 33.0994 24 31.8081 24 30.4616C24 30.4108 24.0051 30.36 24.0152 30.3099L25.1315 24.7715C25.2328 24.2686 25.808 23.9289 26.4161 24.0127Z" fill="white"/>
<path fill-rule="evenodd" clip-rule="evenodd" d="M47.5241 24.1672C47.8224 24.3399 48 24.6221 48 24.9232V47.0769C48 47.5867 47.5002 48 46.8837 48C46.2672 48 45.7674 47.5867 45.7674 47.0769V40.6154H39.0698C38.753 40.6154 38.4512 40.5042 38.2395 40.3093C38.0277 40.1145 37.9261 39.8545 37.9598 39.594L39.0698 39.6924C37.9598 39.594 37.9598 39.5943 37.9598 39.594L37.9603 39.5903L37.9614 39.5819L37.9656 39.5514C37.9692 39.525 37.9745 39.4866 37.9817 39.4371C37.996 39.338 38.0177 39.194 38.0473 39.011C38.1065 38.6451 38.1978 38.1227 38.3266 37.4908C38.5838 36.2293 38.993 34.5214 39.6004 32.7485C40.2055 30.9824 41.0201 29.1137 42.1044 27.5505C43.1744 26.0078 44.6 24.6277 46.5022 24.0557C46.8445 23.9528 47.2259 23.9944 47.5241 24.1672ZM40.3427 38.7693H45.7674V26.5854C45.16 27.0542 44.5826 27.6882 44.041 28.469C43.0845 29.848 42.3294 31.5562 41.7484 33.2517C41.1698 34.9403 40.7767 36.5785 40.5281 37.7978C40.4535 38.1636 40.3921 38.4909 40.3427 38.7693Z" fill="white"/>
</svg>
