<?xml version="1.0" encoding="UTF-8"?>
<svg id="Layer_1" data-name="Layer 1" xmlns="http://www.w3.org/2000/svg" version="1.1" viewBox="0 0 186 186">
  <defs>
    <style>
      .cls-1 {
        fill: #121115;
      }

      .cls-1, .cls-2 {
        stroke-width: 0px;
      }

      .cls-2 {
        fill: #82f3ff;
      }
    </style>
  </defs>
  <path class="cls-1" d="M93,0h0C144.4,0,186,41.6,186,93h0c0,51.4-41.6,93-93,93h0C41.6,186,0,144.4,0,93h0C0,41.6,41.6,0,93,0Z"/>
  <path class="cls-2" d="M79.9,98.6c4.8-1.1,9.1-1.7,13.1-1.7s8.4.6,13.1,1.7,9.1,3,12.9,5.6c4,2.6,6,5.6,6,8.8v12H60.9v-12c0-3.2,1.9-6.2,5.8-8.8,4-2.6,8.4-4.5,13.1-5.6h0ZM81.8,65.8c3.1-3.2,6.9-4.9,11.2-4.9s8.1,1.6,11.2,4.9c3.1,3.1,4.7,6.9,4.7,11.2s-1.6,8.1-4.7,11.2-6.9,4.7-11.2,4.7-8.1-1.6-11.2-4.7-4.7-6.9-4.7-11.2,1.6-8.1,4.7-11.2ZM109.3,107.8c-5.4-2.1-10.8-3.2-16.3-3.2s-10.9,1.1-16.3,3.2c-5.4,2-8.1,3.8-8.1,5.2v4.3h48.8v-4.3c0-1.5-2.7-3.2-8.1-5.2ZM99,71.1c-1.6-1.6-3.6-2.4-6-2.4s-4.4.8-6,2.4-2.4,3.6-2.4,6,.8,4.4,2.4,6c1.6,1.5,3.6,2.2,6,2.2s4.4-.8,6-2.2c1.6-1.6,2.4-3.6,2.4-6s-.8-4.4-2.4-6Z"/>
</svg>