<svg width="120" height="120" viewBox="0 0 120 120" fill="none" xmlns="http://www.w3.org/2000/svg">
<path d="M83.4375 18.75C73.7578 18.75 65.2828 22.9125 60 29.9484C54.7172 22.9125 46.2422 18.75 36.5625 18.75C28.8573 18.7587 21.4702 21.8234 16.0218 27.2718C10.5734 32.7202 7.50868 40.1073 7.5 47.8125C7.5 80.625 56.1516 107.184 58.2234 108.281C58.7695 108.575 59.3799 108.729 60 108.729C60.6201 108.729 61.2305 108.575 61.7766 108.281C63.8484 107.184 112.5 80.625 112.5 47.8125C112.491 40.1073 109.427 32.7202 103.978 27.2718C98.5298 21.8234 91.1427 18.7587 83.4375 18.75ZM60 100.688C51.4406 95.7 15 72.9797 15 47.8125C15.0074 42.0961 17.2816 36.6159 21.3237 32.5737C25.3659 28.5316 30.8461 26.2574 36.5625 26.25C45.6797 26.25 53.3344 31.1063 56.5312 38.9063C56.8138 39.594 57.2944 40.1823 57.912 40.5963C58.5297 41.0103 59.2564 41.2314 60 41.2314C60.7436 41.2314 61.4703 41.0103 62.088 40.5963C62.7056 40.1823 63.1862 39.594 63.4687 38.9063C66.6656 31.0922 74.3203 26.25 83.4375 26.25C89.1539 26.2574 94.6341 28.5316 98.6763 32.5737C102.718 36.6159 104.993 42.0961 105 47.8125C105 72.9422 68.55 95.6953 60 100.688Z" fill="#7BB1B7"/>
</svg>
