<svg width="120" height="120" viewBox="0 0 120 120" fill="none" xmlns="http://www.w3.org/2000/svg">
<path d="M112.5 47.8125C112.5 80.625 63.8484 107.184 61.7766 108.281C61.2305 108.575 60.6201 108.729 60 108.729C59.3799 108.729 58.7695 108.575 58.2234 108.281C56.1516 107.184 7.5 80.625 7.5 47.8125C7.50868 40.1073 10.5734 32.7202 16.0218 27.2718C21.4702 21.8234 28.8573 18.7587 36.5625 18.75C46.2422 18.75 54.7172 22.9125 60 29.9484C65.2828 22.9125 73.7578 18.75 83.4375 18.75C91.1427 18.7587 98.5298 21.8234 103.978 27.2718C109.427 32.7202 112.491 40.1073 112.5 47.8125Z" fill="#DA0B0B"/>
</svg>
