<svg width="186" height="186" viewBox="0 0 186 186" fill="none" xmlns="http://www.w3.org/2000/svg">
<g clip-path="url(#clip0_4285_640)">
<path d="M93 0C144.4 0 186 41.6 186 93C186 144.4 144.4 186 93 186C41.6 186 0 144.4 0 93C0 41.6 41.6 0 93 0Z" fill="#121115"/>
<path d="M138 85.5001H48C47.0054 85.5001 46.0516 85.8951 45.3483 86.5984C44.6451 87.3017 44.25 88.2555 44.25 89.2501C44.2665 98.1681 46.7207 106.912 51.3474 114.536C55.974 122.16 62.597 128.374 70.5 132.506V134.25C70.5 136.239 71.2902 138.147 72.6967 139.553C74.1032 140.96 76.0109 141.75 78 141.75H108C109.989 141.75 111.897 140.96 113.303 139.553C114.71 138.147 115.5 136.239 115.5 134.25V132.506C123.403 128.374 130.026 122.16 134.653 114.536C139.279 106.912 141.734 98.1681 141.75 89.2501C141.75 88.2555 141.355 87.3017 140.652 86.5984C139.948 85.8951 138.995 85.5001 138 85.5001ZM110.184 126.75C109.532 127.05 108.98 127.53 108.593 128.134C108.206 128.738 108 129.44 108 130.158V134.25H78V130.167C78.0018 129.448 77.7969 128.744 77.4096 128.138C77.0223 127.532 76.469 127.05 75.8156 126.75C69.2209 123.715 63.5404 118.999 59.3442 113.075C55.1481 107.152 52.5841 100.228 51.9094 93.0001H134.077C133.403 100.227 130.841 107.149 126.648 113.073C122.454 118.997 116.777 123.713 110.184 126.75ZM71.3297 58.7813C73.8375 55.6594 74.4562 53.5501 74.1984 52.6219C74.0016 51.9235 73.0687 51.5626 73.0594 51.5626C72.2105 51.2836 71.4892 50.7107 71.0253 49.9471C70.5613 49.1834 70.3853 48.2793 70.5289 47.3974C70.6725 46.5155 71.1263 45.7138 71.8085 45.1368C72.4907 44.5598 73.3565 44.2453 74.25 44.2501C74.6282 44.2505 75.0042 44.3074 75.3656 44.4188C75.8344 44.5641 80.0109 45.9797 81.3609 50.4001C82.5141 54.1829 81.1031 58.5797 77.1703 63.4735C74.6625 66.5954 74.0438 68.7047 74.3016 69.6329C74.4984 70.3313 75.4125 70.6829 75.4219 70.6876C76.2692 70.966 76.9894 71.5374 77.4534 72.299C77.9175 73.0607 78.0948 73.9628 77.9537 74.8434C77.8126 75.7241 77.3622 76.5256 76.6834 77.1041C76.0046 77.6826 75.1419 78.0003 74.25 78.0001C73.8718 77.9996 73.4958 77.9427 73.1344 77.8313C72.6656 77.686 68.4891 76.2704 67.1391 71.8501C65.9859 68.0672 67.3969 63.6704 71.3297 58.7813ZM90.0797 58.7813C92.5875 55.6594 93.2062 53.5501 92.9484 52.6219C92.7516 51.9235 91.8187 51.5626 91.8094 51.5626C90.9605 51.2836 90.2392 50.7107 89.7753 49.9471C89.3113 49.1834 89.1353 48.2793 89.2789 47.3974C89.4225 46.5155 89.8763 45.7138 90.5585 45.1368C91.2407 44.5598 92.1065 44.2453 93 44.2501C93.3782 44.2505 93.7542 44.3074 94.1156 44.4188C94.5844 44.5641 98.7609 45.9797 100.111 50.4001C101.264 54.1829 99.8531 58.5797 95.9203 63.4735C93.4125 66.5954 92.7938 68.7047 93.0516 69.6329C93.2484 70.3313 94.1625 70.6829 94.1719 70.6876C95.0192 70.966 95.7394 71.5374 96.2035 72.299C96.6675 73.0607 96.8448 73.9628 96.7037 74.8434C96.5626 75.7241 96.1122 76.5256 95.4334 77.1041C94.7546 77.6826 93.8919 78.0003 93 78.0001C92.6218 77.9996 92.2458 77.9427 91.8844 77.8313C91.4156 77.686 87.2391 76.2704 85.8891 71.8501C84.7359 68.0672 86.1469 63.6704 90.0797 58.7813ZM108.83 58.7813C111.338 55.6594 111.956 53.5501 111.698 52.6219C111.502 51.9235 110.569 51.5626 110.559 51.5626C109.711 51.2836 108.989 50.7107 108.525 49.9471C108.061 49.1834 107.885 48.2793 108.029 47.3974C108.172 46.5155 108.626 45.7138 109.308 45.1368C109.991 44.5598 110.857 44.2453 111.75 44.2501C112.128 44.2505 112.504 44.3074 112.866 44.4188C113.334 44.5641 117.511 45.9797 118.861 50.4001C120.014 54.1829 118.603 58.5797 114.67 63.4735C112.162 66.5954 111.544 68.7047 111.802 69.6329C111.998 70.3313 112.913 70.6829 112.922 70.6876C113.769 70.966 114.489 71.5374 114.953 72.299C115.417 73.0607 115.595 73.9628 115.454 74.8434C115.313 75.7241 114.862 76.5256 114.183 77.1041C113.505 77.6826 112.642 78.0003 111.75 78.0001C111.372 77.9996 110.996 77.9427 110.634 77.8313C110.166 77.686 105.989 76.2704 104.639 71.8501C103.486 68.0672 104.897 63.6704 108.83 58.7813Z" fill="#82F3FF"/>
</g>
<defs>
<clipPath id="clip0_4285_640">
<rect width="186" height="186" fill="white"/>
</clipPath>
</defs>
</svg>
